2vgl4h35ghhzikwpiyev.jpg

Genre:Comedy
Language:English  http://www.imdb.com/title/tt1331326/
Source:DVD
 
http://www.starshare.ro/bitbucket/The.Snake.2008.DVDRip.H264.Feel-Free.mp4_thumbs_%5B2010.09.02_19.49.11%5D.jpg

General
Complete name :The.Snake.2008.DVDRip.H264.Feel-Free
Format : MPEG-4
Format profile : Base Media
Codec ID : isom
File size : 947 MiB
Duration : 1h 16mn
Overall bit rate : 1 733 Kbps
Video #1
ID : 1
Format : AVC
Format/Info : Advanced Video Codec
Format profile : Baseline@L5.1
Format settings, CABAC : No
Format settings, ReFrames : 1 frame
Codec ID : avc1
Codec ID/Info : Advanced Video Coding
Duration : 1h 16mn
Bit rate mode : Variable
Bit rate : 1 563 Kbps
Width : 652 pixels
Height : 352 pixels
Display aspect ratio : 1.852
Frame rate mode : Constant
Frame rate : 29.970 fps
Resolution : 24 bits
Colorimetry : 4:2:0
Scan type : Progressive
Bits/(Pixel*Frame) : 0.227
Stream size : 854 MiB (90%)
Audio #2
ID : 2
Format : AAC
Format/Info : Advanced Audio Codec
Format version : Version 4
Format profile : LC
Format settings, SBR : No
Codec ID : 40
Duration : 1h 16mn
Bit rate mode : Variable
Bit rate : 165 Kbps
Channel(s) : 2 channels
Channel positions : L R
Sampling rate : 48.0 KHz
Resolution : 16 bits
Stream size : 90.4 MiB (10%)

Plot
Ken's an inveterate womanizer who joins an all female body image support group to put the moves on Talia, a young woman with an eating disorder